<svg width="35" height="35" viewBox="0 0 35 35" fill="none" xmlns="http://www.w3.org/2000/svg">
<path d="M17.5 35C27.165 35 35 27.165 35 17.5C35 7.83502 27.165 0 17.5 0C7.83502 0 0 7.83502 0 17.5C0 27.165 7.83502 35 17.5 35Z" fill="#2B2B2B"/>
<path d="M17.501 18.8077C17.0483 18.8077 16.6059 18.6735 16.2296 18.422C15.8532 18.1705 15.5599 17.8131 15.3867 17.395C15.2135 16.9768 15.1682 16.5167 15.2565 16.0728C15.3448 15.6288 15.5627 15.2211 15.8828 14.901C16.2028 14.581 16.6106 14.363 17.0545 14.2747C17.4984 14.1864 17.9585 14.2318 18.3767 14.405C18.7949 14.5782 19.1523 14.8715 19.4037 15.2478C19.6552 15.6242 19.7894 16.0666 19.7894 16.5192C19.7894 17.1262 19.5483 17.7082 19.1191 18.1374C18.69 18.5666 18.1079 18.8077 17.501 18.8077ZM18.7882 18.8077H16.2137C15.9613 18.807 15.7122 18.8643 15.4855 18.9751C15.2588 19.0859 15.0605 19.2473 14.906 19.4468C14.7535 19.641 14.6478 19.8677 14.597 20.1094C14.5463 20.3511 14.5519 20.6012 14.6134 20.8403L15.6089 24.7634C15.7004 25.1181 15.9075 25.4322 16.1974 25.6562C16.4874 25.8801 16.8437 26.0011 17.21 26H17.7919C18.159 26.002 18.5162 25.8814 18.8069 25.6574C19.0977 25.4334 19.3054 25.1188 19.3971 24.7634L20.3926 20.8403C20.4541 20.6012 20.4597 20.3511 20.409 20.1094C20.3582 19.8677 20.2525 19.641 20.1 19.4468C19.9451 19.2467 19.7461 19.085 19.5187 18.9742C19.2912 18.8634 19.0412 18.8064 18.7882 18.8077ZM21.934 18.6442C21.8908 18.8121 21.9161 18.9903 22.0042 19.1395C22.0923 19.2888 22.2361 19.397 22.404 19.4403C22.4574 19.4538 22.5123 19.4607 22.5674 19.4607C22.7123 19.4606 22.853 19.4124 22.9675 19.3236C23.082 19.2349 23.1638 19.1106 23.2 18.9703C23.4237 18.101 23.4454 17.192 23.2637 16.3129C23.082 15.4339 22.7015 14.6081 22.1515 13.8987C21.6015 13.1893 20.8965 12.6151 20.0904 12.2201C19.2843 11.8251 18.3986 11.6197 17.501 11.6197C16.6033 11.6197 15.7176 11.8251 14.9115 12.2201C14.1054 12.6151 13.4004 13.1893 12.8504 13.8987C12.3004 14.6081 11.9199 15.4339 11.7382 16.3129C11.5565 17.192 11.5783 18.101 11.8019 18.9703C11.8223 19.0546 11.8592 19.134 11.9106 19.2038C11.9619 19.2737 12.0267 19.3326 12.101 19.3772C12.1754 19.4218 12.2579 19.4512 12.3437 19.4636C12.4295 19.4761 12.5169 19.4713 12.6009 19.4496C12.6848 19.4279 12.7636 19.3898 12.8327 19.3374C12.9017 19.2849 12.9597 19.2193 13.0032 19.1443C13.0466 19.0693 13.0747 18.9863 13.0858 18.9003C13.0969 18.8144 13.0908 18.727 13.0679 18.6434C12.8943 17.9673 12.8776 17.2605 13.0191 16.577C13.1606 15.8935 13.4566 15.2514 13.8844 14.6998C14.3122 14.1483 14.8605 13.7019 15.4873 13.3948C16.1142 13.0877 16.8029 12.928 17.501 12.928C18.199 12.928 18.8877 13.0877 19.5146 13.3948C20.1414 13.7019 20.6897 14.1483 21.1175 14.6998C21.5453 15.2514 21.8413 15.8935 21.9828 16.577C22.1243 17.2605 22.1076 17.9681 21.934 18.6442ZM17.501 9C15.675 8.99979 13.8974 9.58761 12.4316 10.6764C10.9657 11.7652 9.88947 13.2971 9.36215 15.0453C8.83483 16.7935 8.8845 18.665 9.50379 20.3828C10.1231 22.1006 11.2791 23.5732 12.8006 24.5828C12.945 24.6788 13.1216 24.7135 13.2916 24.6793C13.4615 24.6451 13.611 24.5448 13.707 24.4005C13.7545 24.329 13.7875 24.2488 13.804 24.1645C13.8205 24.0803 13.8202 23.9936 13.8032 23.9094C13.7862 23.8252 13.7528 23.7452 13.7049 23.674C13.657 23.6027 13.5955 23.5416 13.5239 23.4941C12.2366 22.6399 11.2585 21.3939 10.7345 19.9404C10.2105 18.487 10.1685 16.9035 10.6146 15.4244C11.0607 13.9452 11.9713 12.649 13.2115 11.7277C14.4517 10.8063 15.9556 10.3088 17.5005 10.3088C19.0455 10.3088 20.5494 10.8063 21.7896 11.7277C23.0298 12.649 23.9404 13.9452 24.3865 15.4244C24.8326 16.9035 24.7905 18.487 24.2666 19.9404C23.7426 21.3939 22.7645 22.6399 21.4771 23.4941C21.3361 23.5915 21.2389 23.7405 21.2066 23.9088C21.1743 24.0772 21.2094 24.2515 21.3043 24.3942C21.3993 24.537 21.5465 24.6367 21.7142 24.672C21.882 24.7072 22.0569 24.6752 22.2013 24.5828C23.7228 23.5732 24.8788 22.1006 25.4981 20.3828C26.1174 18.665 26.1671 16.7935 25.6398 15.0453C25.1124 13.2971 24.0362 11.7652 22.5703 10.6764C21.1045 9.58761 19.3269 8.99979 17.501 9Z" fill="white"/>
</svg>
