<svg width="35" height="35" viewBox="0 0 35 35" fill="none" xmlns="http://www.w3.org/2000/svg">
<path d="M17.5 35C27.165 35 35 27.165 35 17.5C35 7.83502 27.165 0 17.5 0C7.83502 0 0 7.83502 0 17.5C0 27.165 7.83502 35 17.5 35Z" fill="#2B2B2B"/>
<path d="M19.6236 9.09961C18.4474 9.09961 17.3193 9.56686 16.4876 10.3986C15.6559 11.2303 15.1887 12.3583 15.1887 13.5345V16.0037H12.8154C12.6965 16.0037 12.5996 16.0996 12.5996 16.2195V19.4797C12.5996 19.5986 12.6955 19.6955 12.8154 19.6955H15.1887V26.3839C15.1887 26.5028 15.2845 26.5996 15.4044 26.5996H18.6647C18.7836 26.5996 18.8804 26.5037 18.8804 26.3839V19.6955H21.2748C21.3736 19.6955 21.4599 19.6284 21.4839 19.5325L22.2989 16.2722C22.3069 16.2404 22.3076 16.2072 22.3008 16.1751C22.2941 16.143 22.2801 16.1128 22.26 16.0869C22.2398 16.061 22.214 16.0401 22.1845 16.0257C22.1551 16.0113 22.1227 16.0037 22.0899 16.0037H18.8804V13.5345C18.8804 13.4369 18.8997 13.3403 18.937 13.2501C18.9743 13.16 19.0291 13.0781 19.0981 13.0091C19.1671 12.94 19.249 12.8853 19.3392 12.848C19.4294 12.8106 19.526 12.7914 19.6236 12.7914H22.1167C22.2356 12.7914 22.3325 12.6955 22.3325 12.5756V9.31536C22.3325 9.19646 22.2366 9.09961 22.1167 9.09961H19.6236Z" fill="white"/>
</svg>
