<svg width="35" height="35" viewBox="0 0 35 35" fill="none" xmlns="http://www.w3.org/2000/svg">
<path d="M17.5 35C27.165 35 35 27.165 35 17.5C35 7.83502 27.165 0 17.5 0C7.83502 0 0 7.83502 0 17.5C0 27.165 7.83502 35 17.5 35Z" fill="#2B2B2B"/>
<path d="M10.7711 8.99482C11.0867 8.95384 11.4067 9.02385 11.6764 9.19287L20.8715 14.4199L18.5444 16.7752L10.7711 8.99482ZM10.0638 9.70213C10.0194 9.85612 9.99801 10.0158 10.0001 10.176V24.7891C9.99801 24.9493 10.0194 25.109 10.0638 25.263L17.8442 17.4825L10.0638 9.70213ZM18.5515 18.1898L10.7711 25.9703C11.0868 26.015 11.4082 25.9447 11.6764 25.7722L20.8715 20.5452L18.5515 18.1898ZM24.5778 16.5347L21.791 14.9504L19.2446 17.4825L21.7839 20.0218L24.5707 18.4374C25.4902 17.914 25.4902 17.0511 24.5707 16.5277L24.5778 16.5347Z" fill="white"/>
</svg>
