<svg width="35" height="35" viewBox="0 0 35 35" fill="none" xmlns="http://www.w3.org/2000/svg">
<path d="M17.5 35C27.165 35 35 27.165 35 17.5C35 7.83502 27.165 0 17.5 0C7.83502 0 0 7.83502 0 17.5C0 27.165 7.83502 35 17.5 35Z" fill="#2B2B2B"/>
<path fill-rule="evenodd" clip-rule="evenodd" d="M13.1731 10.6925C11.4158 10.6925 9.9913 12.117 9.9913 13.8743V21.8288C9.9913 23.5861 11.4158 25.0107 13.1731 25.0107H21.1277C22.8849 25.0107 24.3095 23.5861 24.3095 21.8288V13.8743C24.3095 12.117 22.8849 10.6925 21.1277 10.6925H13.1731ZM8.40039 13.8743C8.40039 11.2384 10.5372 9.10156 13.1731 9.10156H21.1277C23.7636 9.10156 25.9004 11.2384 25.9004 13.8743V21.8288C25.9004 24.4647 23.7636 26.6016 21.1277 26.6016H13.1731C10.5372 26.6016 8.40039 24.4647 8.40039 21.8288V13.8743Z" fill="white"/>
<path fill-rule="evenodd" clip-rule="evenodd" d="M20.7294 13.4751C20.7294 13.0358 21.0856 12.6797 21.5249 12.6797H21.5328C21.9722 12.6797 22.3283 13.0358 22.3283 13.4751C22.3283 13.9145 21.9722 14.2706 21.5328 14.2706H21.5249C21.0856 14.2706 20.7294 13.9145 20.7294 13.4751ZM17.5343 15.4552C17.0378 15.3815 16.5308 15.4664 16.0852 15.6975C15.6397 15.9287 15.2784 16.2945 15.0527 16.7428C14.8271 17.1912 14.7485 17.6993 14.8283 18.1948C14.908 18.6904 15.142 19.1482 15.4969 19.5031C15.8518 19.8581 16.3096 20.092 16.8052 20.1718C17.3008 20.2515 17.8088 20.173 18.2572 19.9473C18.7055 19.7216 19.0713 19.3603 19.3025 18.9148C19.5337 18.4693 19.6185 17.9622 19.5449 17.4657C19.4698 16.9592 19.2338 16.4903 18.8717 16.1283C18.5097 15.7663 18.0408 15.5303 17.5343 15.4552ZM15.3525 14.2854C16.095 13.9001 16.9402 13.7588 17.7677 13.8815C18.6118 14.0066 19.3933 14.4 19.9967 15.0034C20.6001 15.6068 20.9934 16.3882 21.1186 17.2323C21.2413 18.0598 21.0999 18.905 20.7146 19.6475C20.3293 20.3901 19.7197 20.9923 18.9725 21.3684C18.2252 21.7445 17.3784 21.8754 16.5524 21.7425C15.7265 21.6096 14.9635 21.2196 14.372 20.6281C13.7804 20.0365 13.3905 19.2735 13.2575 18.4476C13.1246 17.6217 13.2556 16.7748 13.6317 16.0276C14.0078 15.2803 14.6099 14.6707 15.3525 14.2854Z" fill="white"/>
</svg>
