<svg width="35" height="35" viewBox="0 0 35 35" fill="none" xmlns="http://www.w3.org/2000/svg">
<path d="M17.5 35C27.165 35 35 27.165 35 17.5C35 7.83502 27.165 0 17.5 0C7.83502 0 0 7.83502 0 17.5C0 27.165 7.83502 35 17.5 35Z" fill="#2B2B2B"/>
<path fill-rule="evenodd" clip-rule="evenodd" d="M14.9008 15.1975H18.1505V16.8162C18.6186 15.8852 19.8191 15.0487 21.6225 15.0487C25.0796 15.0487 25.9004 16.902 25.9004 20.3022V26.5996H22.4004V21.0766C22.4004 19.1402 21.9323 18.0482 20.7405 18.0482C19.0876 18.0482 18.4008 19.2251 18.4008 21.0757V26.5996H14.9008V15.1975ZM8.89914 26.4509H12.3991V15.0487H8.89914V26.4509ZM12.9005 11.3309C12.9006 11.6242 12.8425 11.9147 12.7294 12.1854C12.6162 12.4561 12.4505 12.7016 12.2416 12.9076C11.8185 13.3282 11.2457 13.5636 10.6491 13.5621C10.0536 13.5617 9.48216 13.3269 9.05839 12.9085C8.85033 12.7017 8.6851 12.456 8.57219 12.1852C8.45928 11.9145 8.4009 11.6242 8.40039 11.3309C8.40039 10.7385 8.63664 10.1715 9.05927 9.75323C9.48267 9.33425 10.0544 9.09935 10.65 9.09961C11.2468 9.09961 11.819 9.33498 12.2416 9.75323C12.6634 10.1715 12.9005 10.7385 12.9005 11.3309Z" fill="white"/>
</svg>
