<svg width="40" height="40" viewBox="0 0 40 40" fill="none" xmlns="http://www.w3.org/2000/svg">
<path d="M20.0008 2.75879C29.5236 2.75879 37.2422 10.4774 37.2422 20.0002C37.2422 29.5229 29.5236 37.2415 20.0008 37.2415C10.4781 37.2415 2.75943 29.5229 2.75943 20.0002C2.75943 10.4774 10.4781 2.75879 20.0008 2.75879ZM15.1732 25.9878C15.1733 26.1957 15.2284 26.3999 15.333 26.5797C15.4376 26.7594 15.5879 26.9083 15.7686 27.0111C15.9494 27.114 16.1541 27.1671 16.3621 27.1652C16.57 27.1633 16.7737 27.1063 16.9525 27.0002L27.0118 21.0126C27.187 20.9081 27.3321 20.76 27.4328 20.5826C27.5335 20.4053 27.5865 20.2048 27.5865 20.0009C27.5865 19.7969 27.5335 19.5964 27.4328 19.4191C27.3321 19.2417 27.187 19.0936 27.0118 18.9891L16.9525 13.0015C16.7739 12.895 16.5702 12.8377 16.3622 12.8355C16.1542 12.8333 15.9494 12.8863 15.7685 12.989C15.5877 13.0918 15.4373 13.2407 15.3327 13.4205C15.2282 13.6003 15.1731 13.8046 15.1732 14.0126V25.9878Z" fill="#040707" fill-opacity="0.8"/>
</svg>
