<svg width="156" height="28" viewBox="0 0 156 28" fill="none" xmlns="http://www.w3.org/2000/svg">
<path d="M14 0L17.1432 9.67376H27.3148L19.0858 15.6525L22.229 25.3262L14 19.3475L5.77101 25.3262L8.9142 15.6525L0.685208 9.67376H10.8568L14 0Z" fill="#EEE916"/>
<path d="M46 0L49.1432 9.67376H59.3148L51.0858 15.6525L54.229 25.3262L46 19.3475L37.771 25.3262L40.9142 15.6525L32.6852 9.67376H42.8568L46 0Z" fill="#EEE916"/>
<path d="M78 0L81.1432 9.67376H91.3148L83.0858 15.6525L86.229 25.3262L78 19.3475L69.771 25.3262L72.9142 15.6525L64.6852 9.67376H74.8568L78 0Z" fill="#EEE916"/>
<path d="M110 0L113.143 9.67376H123.315L115.086 15.6525L118.229 25.3262L110 19.3475L101.771 25.3262L104.914 15.6525L96.6852 9.67376H106.857L110 0Z" fill="#EEE916"/>
<path d="M142 0L145.143 9.67376H155.315L147.086 15.6525L150.229 25.3262L142 19.3475L133.771 25.3262L136.914 15.6525L128.685 9.67376H138.857L142 0Z" fill="#EEE916"/>
</svg>
