<svg width="35" height="35" viewBox="0 0 35 35" fill="none" xmlns="http://www.w3.org/2000/svg">
<path d="M17.5 35C27.165 35 35 27.165 35 17.5C35 7.83502 27.165 0 17.5 0C7.83502 0 0 7.83502 0 17.5C0 27.165 7.83502 35 17.5 35Z" fill="#2B2B2B"/>
<path d="M17.5547 11.999H17.6493C18.5227 12.0022 22.9483 12.0341 24.1416 12.355C24.5023 12.4529 24.831 12.6438 25.0949 12.9086C25.3587 13.1734 25.5484 13.5028 25.6451 13.8638C25.7524 14.2676 25.8279 14.8021 25.8789 15.3535L25.8895 15.4641L25.9129 15.7403L25.9214 15.8508C25.9904 16.822 25.9989 17.7316 26 17.9303V18.01C25.9989 18.2161 25.9894 19.1873 25.9129 20.1988L25.9044 20.3104L25.8948 20.4209C25.8417 21.0287 25.763 21.6323 25.6451 22.0764C25.5487 22.4376 25.3591 22.7672 25.0952 23.032C24.8313 23.2968 24.5025 23.4876 24.1416 23.5852C22.909 23.9168 18.2241 23.9401 17.5749 23.9412H17.424C17.0957 23.9412 15.7377 23.9348 14.3139 23.886L14.1333 23.8796L14.0408 23.8753L13.8591 23.8679L13.6774 23.8605C12.498 23.8084 11.3748 23.7244 10.8574 23.5842C10.4966 23.4866 10.1678 23.296 9.90395 23.0314C9.64007 22.7668 9.45037 22.4374 9.35383 22.0764C9.23589 21.6333 9.15726 21.0287 9.10413 20.4209L9.09563 20.3094L9.08713 20.1988C9.03469 19.4789 9.00563 18.7573 9 18.0355V17.9048C9.00213 17.6763 9.01063 16.8868 9.068 16.0155L9.07544 15.9061L9.07863 15.8508L9.08713 15.7403L9.11051 15.4641L9.12113 15.3535C9.17214 14.8021 9.24758 14.2665 9.3549 13.8638C9.45127 13.5026 9.6409 13.1731 9.90479 12.9082C10.1687 12.6434 10.4975 12.4526 10.8584 12.355C11.3759 12.2168 12.499 12.1318 13.6785 12.0787L13.8591 12.0713L14.0419 12.0649L14.1333 12.0617L14.315 12.0543C15.3262 12.0217 16.3379 12.0037 17.3496 12.0001H17.5547V11.999ZM15.8004 15.4099V20.5293L20.2175 17.9706L15.8004 15.4099Z" fill="white"/>
</svg>
